<svg xmlns="http://www.w3.org/2000/svg" xmlns:xlink="http://www.w3.org/1999/xlink" width="40" height="40" viewBox="0 0 40 40">
  <defs>
    <clipPath id="clip-path">
      <rect id="Rectangle_205" data-name="Rectangle 205" width="9.796" height="21.671" fill="#357a8f"/>
    </clipPath>
  </defs>
  <g id="Group_50" data-name="Group 50" transform="translate(-879 -6059)">
    <g id="Ellipse_19" data-name="Ellipse 19" transform="translate(879 6059)" fill="#fff" stroke="#ccc" stroke-width="1">
      <circle cx="20" cy="20" r="20" stroke="none"/>
      <circle cx="20" cy="20" r="19.5" fill="none"/>
    </g>
    <g id="Group_41" data-name="Group 41" transform="translate(894.102 6068.164)">
      <g id="Group_40" data-name="Group 40" clip-path="url(#clip-path)">
        <path id="Path_12" data-name="Path 12" d="M5.825,21.671H2.578a.76.76,0,0,1-.215-.625c.006-2.89,0-5.781.009-8.671,0-.2-.058-.238-.242-.234-.548.012-1.1.005-1.644,0-.356,0-.485-.129-.485-.482q0-1.385,0-2.77c0-.357.122-.479.481-.481.555,0,1.11-.011,1.665.005.2.006.227-.058.224-.235-.01-.7,0-1.41,0-2.115A5.938,5.938,0,0,1,3.041,3.18,5.863,5.863,0,0,1,6.6.245a9.129,9.129,0,0,1,2.82-.24.368.368,0,0,1,.376.334q0,1.525,0,3.05c-.075.264-.165.341-.428.344-.344,0-.689,0-1.033,0A2.193,2.193,0,0,0,6.086,5.991c0,.74.006,1.481-.006,2.221,0,.181.062.2.216.2.878-.006,1.757,0,2.635,0,.372,0,.487.119.488.495q0,1.364,0,2.729c0,.387-.12.509-.5.51-.871,0-1.743.007-2.614-.005-.192,0-.226.053-.225.233.006,2.926,0,5.853.008,8.779a.519.519,0,0,1-.264.519" transform="translate(0 0)" fill="#357a8f"/>
      </g>
    </g>
  </g>
</svg>
