<svg xmlns="http://www.w3.org/2000/svg" width="40" height="40" viewBox="0 0 40 40">
  <g id="Group_48" data-name="Group 48" transform="translate(-771 -6059)">
    <g id="Ellipse_16" data-name="Ellipse 16" transform="translate(771 6059)" fill="#fff" stroke="#ccc" stroke-width="1">
      <circle cx="20" cy="20" r="20" stroke="none"/>
      <circle cx="20" cy="20" r="19.5" fill="none"/>
    </g>
    <g id="Group_37" data-name="Group 37" transform="translate(754.402 6034.783)">
      <path id="Path_10" data-name="Path 10" d="M44.093,35.855a7.773,7.773,0,0,1-2.238.613,3.907,3.907,0,0,0,1.713-2.155,7.8,7.8,0,0,1-2.474.945,3.9,3.9,0,0,0-6.639,3.554,11.06,11.06,0,0,1-8.031-4.071,3.9,3.9,0,0,0,1.205,5.2,3.868,3.868,0,0,1-1.765-.488c0,.017,0,.033,0,.049a3.9,3.9,0,0,0,3.125,3.82,3.911,3.911,0,0,1-1.759.067A3.9,3.9,0,0,0,30.871,46.1,7.865,7.865,0,0,1,25.1,47.71,11.08,11.08,0,0,0,42.16,38.375c0-.169,0-.337-.011-.5a7.9,7.9,0,0,0,1.944-2.016Z" transform="translate(2 2.472)" fill="#357a8f"/>
    </g>
  </g>
</svg>
