<svg xmlns="http://www.w3.org/2000/svg" xmlns:xlink="http://www.w3.org/1999/xlink" width="40" height="40" viewBox="0 0 40 40">
  <defs>
    <clipPath id="clip-path">
      <rect id="Rectangle_204" data-name="Rectangle 204" width="16.498" height="21.671" fill="#357a8f"/>
    </clipPath>
  </defs>
  <g id="Group_49" data-name="Group 49" transform="translate(-823 -6059)">
    <g id="Ellipse_18" data-name="Ellipse 18" transform="translate(823 6059)" fill="#fff" stroke="#ccc" stroke-width="1">
      <circle cx="20" cy="20" r="20" stroke="none"/>
      <circle cx="20" cy="20" r="19.5" fill="none"/>
    </g>
    <g id="Group_39" data-name="Group 39" transform="translate(832.953 6068.164)">
      <g id="Group_38" data-name="Group 38" transform="translate(1.798)" clip-path="url(#clip-path)">
        <path id="Path_11" data-name="Path 11" d="M.007,6.569a6.605,6.605,0,0,1,.17-.958A6.916,6.916,0,0,1,4.137.876,9.407,9.407,0,0,1,7.257.064a9.918,9.918,0,0,1,5.225.753,6.7,6.7,0,0,1,2.9,2.5A7.15,7.15,0,0,1,16.473,6.68a7.334,7.334,0,0,1-.556,3.478,7.414,7.414,0,0,1-3.589,3.854,5.618,5.618,0,0,1-4.7.218,3.3,3.3,0,0,1-1.4-1c-.025.069-.042.114-.058.161-.38,1.151-.763,2.3-1.192,3.434A14.976,14.976,0,0,1,2.391,21.5c-.052.06-.073.156-.174.167-.022-.2-.034-.409-.068-.61A8.324,8.324,0,0,1,2.2,18.028c.252-1.282.614-2.534.976-3.787.408-1.408.848-2.807,1.143-4.246a2.238,2.238,0,0,0-.032-1.185,3.877,3.877,0,0,1,.058-2.657,2.317,2.317,0,0,1,1.768-1.6A1.557,1.557,0,0,1,8.074,6.092a8.165,8.165,0,0,1-.407,2.134c-.207.747-.457,1.481-.66,2.229A1.431,1.431,0,0,0,7.582,12.1a3.16,3.16,0,0,0,4.262-.655,6.43,6.43,0,0,0,1.423-5.048A4.058,4.058,0,0,0,11.6,3.575,5.582,5.582,0,0,0,8.8,2.524a7.082,7.082,0,0,0-4.4.826,3.908,3.908,0,0,0-1.889,2.2,6.734,6.734,0,0,0-.228,2.974A5.769,5.769,0,0,0,2.83,10.53a.214.214,0,0,1,.022.163c-.089.334-.179.667-.268,1-.02.075-.045.1-.13.06a3.427,3.427,0,0,1-.572-.319A4.6,4.6,0,0,1,.13,8.717,12.587,12.587,0,0,1,.007,6.569" transform="translate(0 0.001)" fill="#357a8f"/>
      </g>
    </g>
  </g>
</svg>
