<svg xmlns="http://www.w3.org/2000/svg" xmlns:xlink="http://www.w3.org/1999/xlink" width="40" height="40" viewBox="0 0 40 40">
  <defs>
    <clipPath id="clip-path">
      <rect id="Rectangle_207" data-name="Rectangle 207" width="19.562" height="19.592" fill="#357a8f"/>
    </clipPath>
  </defs>
  <g id="Group_47" data-name="Group 47" transform="translate(-718 -6059)">
    <g id="Ellipse_21" data-name="Ellipse 21" transform="translate(718 6059)" fill="#fff" stroke="#ccc" stroke-width="1">
      <circle cx="20" cy="20" r="20" stroke="none"/>
      <circle cx="20" cy="20" r="19.5" fill="none"/>
    </g>
    <g id="Group_46" data-name="Group 46" transform="translate(728.219 6069.205)">
      <g id="Group_45" data-name="Group 45" clip-path="url(#clip-path)">
        <path id="Path_14" data-name="Path 14" d="M6.323,0h6.809c.052.074.128.033.191.036a11.382,11.382,0,0,1,1.936.2,5.038,5.038,0,0,1,3.711,2.884A7.455,7.455,0,0,1,19.556,6.3q.012,3.4,0,6.807a10.193,10.193,0,0,1-.189,2.109,5.057,5.057,0,0,1-3.055,3.813,7.754,7.754,0,0,1-2.876.516c-2.071.066-4.143.047-6.214.027a13.348,13.348,0,0,1-3.04-.253A5.019,5.019,0,0,1,.643,16.5,6.76,6.76,0,0,1,.061,13.77q-.122-3.938,0-7.876A8.012,8.012,0,0,1,.318,4.005,4.991,4.991,0,0,1,3.383.516,7.972,7.972,0,0,1,6.133.037c.063,0,.14.039.19-.038M9.794,17.824c.523,0,1.046.005,1.568,0a22.734,22.734,0,0,0,3.32-.154,3.325,3.325,0,0,0,2.906-2.559,8.046,8.046,0,0,0,.209-1.895c.06-1.963.045-3.927.023-5.89a17.7,17.7,0,0,0-.135-2.384A3.368,3.368,0,0,0,15.045,2a9.778,9.778,0,0,0-2.165-.2c-1.817-.035-3.634-.032-5.45-.011a14.848,14.848,0,0,0-2.611.161,3.309,3.309,0,0,0-2.8,2.575,9.081,9.081,0,0,0-.2,2.049C1.768,8.151,1.77,9.726,1.785,11.3a25.284,25.284,0,0,0,.139,3.3A3.385,3.385,0,0,0,3.544,17.2a4.432,4.432,0,0,0,2.025.552c1.407.092,2.816.075,4.225.076" transform="translate(0 0.001)" fill="#357a8f"/>
        <path id="Path_15" data-name="Path 15" d="M129.415,134.341a5.031,5.031,0,1,1,5.035-5.028,5.041,5.041,0,0,1-5.035,5.028m0-1.773a3.26,3.26,0,1,0-3.251-3.259,3.25,3.25,0,0,0,3.251,3.259" transform="translate(-119.617 -119.515)" fill="#357a8f"/>
        <path id="Path_16" data-name="Path 16" d="M363.8,89.683a1.172,1.172,0,1,1-1.17-1.177,1.168,1.168,0,0,1,1.17,1.177" transform="translate(-347.594 -85.112)" fill="#357a8f"/>
      </g>
    </g>
  </g>
</svg>
